<?xml version="1.0" encoding="UTF-8"?>
<!-- Generator: Adobe Illustrator 22.0.1, SVG Export Plug-In . SVG Version: 6.00 Build 0)  -->
<svg version="1.1" id="Calque_1" xmlns="http://www.w3.org/2000/svg" xmlns:xlink="http://www.w3.org/1999/xlink" x="0px" y="0px" viewBox="0 0 21 28" style="enable-background:new 0 0 21 28;" xml:space="preserve">
<style type="text/css">
	.st0{fill:#FFFFFF;}
</style>
<g id="VisionCarto---fiche-point-de-vue" transform="translate(-88.000000, -6.000000)">
	<g id="rubrique_x2F_icons_x2F_point-of-view" transform="translate(88.000000, 6.000000)">
		<g id="photo-camera" transform="translate(10.500000, 14.000000) scale(-1, 1) translate(-10.500000, -14.000000) ">
			<path id="Shape" class="st0" d="M10.5,0.4c5.6,0,10.2,4.4,10.2,9.8c0,6.7-9.1,16.6-9.5,17.1c-0.4,0.4-1,0.4-1.4,0
				C9.4,26.9,0.3,17,0.3,10.2C0.3,4.8,4.9,0.4,10.5,0.4z M10.5,18.9c4.6,0,8.2-3.7,8.2-8.2s-3.7-8.2-8.2-8.2S2.3,6,2.3,10.6
				S5.9,18.9,10.5,18.9z"/>
			<path id="Shape_1_" class="st0" d="M16.3,6.4c-0.3-0.3-0.7-0.5-1.2-0.5h-1.5l-0.3-0.9c-0.1-0.2-0.2-0.4-0.5-0.6
				c-0.3-0.1-0.5-0.2-0.8-0.2H8.9c-0.3,0-0.5,0.1-0.7,0.2C7.9,4.7,7.8,4.9,7.7,5.1L7.4,5.9H5.8C5.4,5.9,5,6.1,4.7,6.4
				C4.4,6.7,4.2,7.1,4.2,7.6v5.7c0,0.5,0.2,0.9,0.5,1.2C5,14.8,5.5,15,5.8,15h9.2c0.5,0,0.9-0.2,1.2-0.5c0.3-0.3,0.5-0.7,0.5-1.2
				V7.6C16.8,7.1,16.6,6.7,16.3,6.4z M12.5,12.4c-0.6,0.6-1.3,0.9-2,0.9S9,13,8.5,12.4c-0.6-0.6-0.9-1.3-0.9-2c0-0.8,0.3-1.5,0.9-2
				c0.6-0.5,1.3-0.8,2-0.8s1.5,0.3,2,0.9c0.6,0.6,0.9,1.3,0.9,2C13.4,11.3,13.1,12,12.5,12.4z"/>
		</g>
	</g>
</g>
</svg>