<svg version="1.1" id="Calque_1" xmlns="http://www.w3.org/2000/svg" x="0" y="0" viewBox="0 0 21 28" xml:space="preserve">
    <style>
        .st0{fill:#fff}
    </style>
    <g id="VisionCarto---fiche-point-de-vue" transform="translate(-88 -6)">
        <g id="rubrique_x2F_icons_x2F_point-of-view" transform="translate(88 6)">
            <g id="photo-camera" transform="matrix(-1 0 0 1 21 0)">
                <path id="Shape" class="st0" d="M10.5.4c5.6 0 10.2 4.4 10.2 9.8 0 6.7-9.1 16.6-9.5 17.1-.4.4-1 .4-1.4 0C9.4 26.9.3 17 .3 10.2.3 4.8 4.9.4 10.5.4zm0 18.5c4.6 0 8.2-3.7 8.2-8.2S15 2.5 10.5 2.5 2.3 6 2.3 10.6s3.6 8.3 8.2 8.3z"/>
                <path id="Shape_1_" class="st0" d="M16.3 6.4c-.3-.3-.7-.5-1.2-.5h-1.5l-.3-.9c-.1-.2-.2-.4-.5-.6-.3-.1-.5-.2-.8-.2H8.9c-.3 0-.5.1-.7.2-.3.3-.4.5-.5.7l-.3.8H5.8c-.4 0-.8.2-1.1.5-.3.3-.5.7-.5 1.2v5.7c0 .5.2.9.5 1.2.3.3.8.5 1.1.5H15c.5 0 .9-.2 1.2-.5.3-.3.5-.7.5-1.2V7.6c.1-.5-.1-.9-.4-1.2zm-3.8 6c-.6.6-1.3.9-2 .9s-1.5-.3-2-.9c-.6-.6-.9-1.3-.9-2 0-.8.3-1.5.9-2 .6-.5 1.3-.8 2-.8s1.5.3 2 .9c.6.6.9 1.3.9 2 0 .8-.3 1.5-.9 1.9z"/>
            </g>
        </g>
    </g>
</svg>
